<svg xmlns="http://www.w3.org/2000/svg" width="430" height="430" style="width:100%;height:100%;transform:translate3d(0,0,0);content-visibility:visible" viewBox="0 0 430 430"><defs><clipPath id="a"><path d="M0 0h430v430H0z"/></clipPath><clipPath id="c"><path d="M0 0h430v430H0z"/></clipPath><clipPath id="b"><path d="M0 0h430v430H0z"/></clipPath></defs><g clip-path="url(#a)"><g clip-path="url(#b)" style="display:block"><g fill="#4BB3FD" style="display:block"><path d="M282.875 190.785c0 43.233-26.76 77.042-66.341 76.819-.311.016-.605.032-.9.016-.36.016-.737.016-1.097.016-.311 0-.639 0-.95-.016-38.907 1.509-66.138-33.952-66.138-77.585 0-2.996.327-5.993.916-9.006 1.715-21.621 11.098-47.05 8.933-68.487-.404-4 4.114-6.665 7.553-4.47a507.183 507.183 0 0 1 17.472 11.662c13.315-17.764 26.151-35.868 30.597-54.447.98-4.094 6.397-5.162 8.831-1.697 17.752 25.277 61.124 91.982 61.124 127.195z" class="quaternary"/><path d="M29.512 49.137a61.454 61.454 0 0 1-6.22.496c-.311.016-.605.032-.9.016-.36.016-.737.016-1.097.016-.311 0-.638 0-.949-.016-39.112 1.109-66.139-33.952-66.139-77.585 0-2.997.327-5.992.917-9.005 1.714-21.621 11.097-47.05 8.932-68.487-.404-4 4.115-6.665 7.554-4.47a507.257 507.257 0 0 1 17.471 11.662c.066-.096.132-.176.214-.272.082 20.35-7.638 43.331-9.209 63.217-.59 3.013-.917 6.009-.917 9.006 0 37.368 20.142 67.442 50.343 75.422z" class="quaternary" opacity=".5" style="mix-blend-mode:multiply" transform="translate(193.242 217.97)"/></g><path fill="none" stroke="#121331" stroke-linecap="round" stroke-linejoin="round" stroke-width="7" d="M55.534 24.704c0 35.998-24.865 62.875-55.534 62.875s-55.534-26.877-55.534-62.875c0-2.451.254-4.902.728-7.364 1.618-20.773 14.173-46.679 6.948-65.406 0 0 9.999 6.034 22.056 14.646C-12.901-51.003-.566-68.991 0-87.579c0 0 55.534 76.274 55.534 112.283z" class="primary" style="display:block" transform="matrix(1.22 0 0 1.22 214.69 161.405)"/><g fill="#EBE6EF" style="display:block"><path d="M253.12 227.658c1.104 22.325-15.79 38.824-35.251 39.755-.288.016-.576.032-.864.016-.352.016-.72.016-1.088.016h-.417c-.16 0-.32 0-.48-.016-21.169.312-35.514-14.033-36.723-38.946-.85-17.512 29.346-41.133 38.371-72.858 0 0 35.208 46.876 36.452 72.033z" class="tertiary"/><path d="M217.005 267.428c-.336.031-.672.032-1.024.032-.32 0-.64-.001-.96-.032.288.016.592.016.896.016.368 0 .736 0 1.088-.016z" class="tertiary"/><g style="mix-blend-mode:multiply"><path d="M224.638 266.458a36.748 36.748 0 0 1-6.77.947 7.786 7.786 0 0 1-.864.016c-.352.016-.721.016-1.089.016h-.416c-.16 0-.32 0-.48-.016-21.068.32-35.572-14.328-36.76-38.966-.884-18.33 29.295-40.614 38.259-72.534 0 0 10.741 14.755 14.028 20.297-10.228 27.806-34.956 37.318-34.956 55.468 0 20.139 12.836 31.063 29.048 34.772z" class="tertiary"/><path d="M217.003 267.421c-.336.031-.672.032-1.024.032-.32 0-.64-.001-.96-.032.288.016.592.016.896.016.368 0 .736 0 1.088-.016z" class="tertiary"/></g></g><path fill="none" stroke="#121331" stroke-linecap="round" stroke-linejoin="round" stroke-width="7" d="M-30.189 14.243C-30.189-5.33-.656-25.331 0-46.795c0 0 30.189 41.465 30.189 61.038 0 19.573-13.516 32.552-30.189 32.552-16.673 0-30.189-12.979-30.189-32.552z" class="primary" style="display:block" transform="matrix(1.22 0 0 1.22 215.755 211.175)"/><path fill="#3A3347" d="M80.5 19.8h-161m161 0v-39.6h-161v39.6" class="secondary" style="display:block" transform="translate(214.95 350.689)"/><g opacity=".5" style="mix-blend-mode:multiply;display:block"><path fill="#3A3347" d="M295.45 370.489h-161m161 0v-39.6h-161v39.6" class="secondary" opacity="1"/></g><path fill="none" stroke="#121331" stroke-linecap="round" stroke-linejoin="round" stroke-width="7" d="M80.5 19.8h-161m161 0v-39.6h-161v39.6" class="primary" style="display:block" transform="translate(214.95 350.689)"/><path fill="#3A3347" d="M112.75 17v-34c0-1.6-1.3-3-3-3h-219.5c-1.7 0-3 1.3-3 3v34c0 1.7 1.3 3 3 3h219.5c1.7 0 3-1.3 3-3z" class="secondary" style="display:block" transform="translate(215 315.989)"/><g opacity=".5" style="mix-blend-mode:multiply;display:block"><path fill="#3A3347" d="M135.85 335.989v-40h-30.6c-1.7 0-3 1.3-3 3v34c0 1.7 1.3 3 3 3h30.6z" class="secondary" opacity="1"/></g><path fill="none" stroke="#121331" stroke-linecap="round" stroke-linejoin="round" stroke-width="7" d="M112.75 17v-34c0-1.6-1.3-3-3-3h-219.5c-1.7 0-3 1.3-3 3v34c0 1.7 1.3 3 3 3h219.5c1.7 0 3-1.3 3-3z" class="primary" style="display:block" transform="translate(215 315.989)"/></g><g clip-path="url(#c)" style="display:none"><path class="secondary" style="display:none"/><path class="secondary" style="mix-blend-mode:multiply;display:none"/><path fill="none" class="primary" style="display:none"/><path class="secondary" style="display:none"/><path class="secondary" style="mix-blend-mode:multiply;display:none"/><path fill="none" class="primary" style="display:none"/><g style="display:none"><path class="quaternary"/><path class="quaternary" style="mix-blend-mode:multiply"/></g><path fill="none" class="primary" style="display:none"/><g style="display:none"><path class="tertiary"/><path class="tertiary" style="mix-blend-mode:multiply"/></g><path fill="none" class="primary" style="display:none"/></g></g></svg>