<?xml version="1.0" encoding="UTF-8"?>
<svg width="24px" height="24px" viewBox="0 0 24 24" version="1.1" xmlns="http://www.w3.org/2000/svg">
    <g stroke="none" stroke-width="1" fill="none" fill-rule="evenodd">
        <circle fill="#FEE2E2" cx="12" cy="12" r="12"/>
        <path d="M12,6 C14.2091,6 16,7.79086 16,10 C16,11.9073 14.5962,13.4815 12.7825,13.8945 L12.7825,17.2071 L11.2175,17.2071 L11.2175,13.8945 C9.4038,13.4815 8,11.9073 8,10 C8,7.79086 9.79086,6 12,6 Z M12,7.5 C10.6193,7.5 9.5,8.61929 9.5,10 C9.5,11.3807 10.6193,12.5 12,12.5 C13.3807,12.5 14.5,11.3807 14.5,10 C14.5,8.61929 13.3807,7.5 12,7.5 Z" fill="#DC2626"/>
    </g>
</svg>
