<?xml version="1.0" encoding="UTF-8"?>
<svg width="24px" height="24px" viewBox="0 0 24 24" version="1.1" xmlns="http://www.w3.org/2000/svg">
    <g stroke="none" stroke-width="1" fill="none" fill-rule="evenodd">
        <circle fill="#FEF3C7" cx="12" cy="12" r="12"/>
        <path d="M12,6 C15.3137085,6 18,8.6862915 18,12 C18,15.3137085 15.3137085,18 12,18 C8.6862915,18 6,15.3137085 6,12 C6,8.6862915 8.6862915,6 12,6 Z M12,8 C9.790861,8 8,9.790861 8,12 C8,14.209139 9.790861,16 12,16 C14.209139,16 16,14.209139 16,12 C16,9.790861 14.209139,8 12,8 Z M13,10 L13,11.5858 L14.4142,10.1716 L15.8284,11.5858 L14.4142,13 L16,13 L16,15 L14.4142,15 L15.8284,16.4142 L14.4142,17.8284 L13,16.4142 L13,18 L11,18 L11,16.4142 L9.58579,17.8284 L8.17157,16.4142 L9.58579,15 L8,15 L8,13 L9.58579,13 L8.17157,11.5858 L9.58579,10.1716 L11,11.5858 L11,10 L13,10 Z" fill="#D97706"/>
    </g>
</svg>
